# xmcd
#
# Track frame offsets: 
#        150
#        18390
#        38514
#        67802
#        87304
#        109400
#        126147
#        141799
#        158443
#        174313
#        192442
#        207186
#        223775
#
# Disc length: 3269 seconds
#
# Revision: 2
# Processed by: cddbd v1.5.2PL0 Copyright (c) Steve Scherf et al.
# Submitted via: ExactAudioCopy v1.0b4
#
DISCID=ad0cc30d
DTITLE=John Campbelljohn - The Land OfThe Living [disk 1]
DYEAR=2012
DGENRE=Blues, Delta Blues, Electric Blues
TTITLE0=Land Of The Livin'
TTITLE1=No Dear John
TTITLE2=Little Wing
TTITLE3=Key To The Highway
TTITLE4=The Court Of Love
TTITLE5=The World Is Crazy
TTITLE6=Johnny Rock'n'Roll
TTITLE7=Nerves Of Steel
TTITLE8=Knocked Down
TTITLE9=No Philosopher
TTITLE10=Martha Mae
TTITLE11=Non Confirmist Blues
TTITLE12=Slow Down
EXTD=
EXTT0=
EXTT1=
EXTT2=
EXTT3=
EXTT4=
EXTT5=
EXTT6=
EXTT7=
EXTT8=
EXTT9=
EXTT10=
EXTT11=
EXTT12=
PLAYORDER=
